<svg version="1.1" id="Layer_1" xmlns="http://www.w3.org/2000/svg" xmlns:xlink="http://www.w3.org/1999/xlink" x="0px" y="0px"
	 width="100%" viewBox="0 0 1920 1080" enable-background="new 0 0 1920 1080" xml:space="preserve">
<path fill="#FFFFFF" opacity="1.000000" stroke="none" 
	d="
M1805.000000,1081.000000 
	C1203.333496,1081.000000 602.166870,1081.000000 1.000242,1081.000000 
	C1.000161,721.000183 1.000161,361.000336 1.000081,1.000387 
	C640.999695,1.000258 1280.999390,1.000258 1920.999268,1.000129 
	C1920.999512,360.999634 1920.999512,720.999268 1920.999756,1080.999512 
	C1882.500000,1081.000000 1844.000000,1081.000000 1805.000000,1081.000000 
M1046.911255,483.390076 
	C1032.892944,489.073792 1018.836243,494.665253 1004.864136,500.460510 
	C976.458618,512.242432 947.891907,514.604492 919.058289,502.119751 
	C899.679871,493.729034 880.349854,485.226044 861.019409,476.725067 
	C849.524475,471.669891 837.689758,467.930481 825.082336,467.025970 
	C802.450378,465.402161 782.807190,473.815277 763.771790,484.815033 
	C751.264038,492.042694 738.856934,499.918427 725.458435,505.017120 
	C706.495178,512.233337 686.831177,514.209717 668.527283,501.783813 
	C657.296265,494.159424 644.964111,488.947449 632.338196,484.063721 
	C601.701660,472.213348 572.138977,473.977478 543.173584,489.252258 
	C535.676331,493.205902 528.002258,496.844818 520.287903,500.361633 
	C505.368713,507.162964 490.028595,511.636719 473.366119,508.055359 
	C462.509827,505.721954 453.617462,499.512695 444.492096,493.719421 
	C423.952240,480.679626 401.691742,475.960388 377.640198,480.019592 
	C362.243347,482.618134 348.571869,489.318878 335.769745,497.929474 
	C334.324799,498.901337 333.054382,501.140289 332.925415,502.882141 
	C332.436493,509.487213 332.011047,516.152100 332.350616,522.754028 
	C334.035858,555.519287 336.032471,588.268372 337.771057,621.031006 
	C338.128601,627.768860 340.148560,631.333923 346.804260,631.961243 
	C353.343018,632.577576 360.016479,631.600037 366.630280,631.612061 
	C415.438049,631.700684 464.245667,631.942139 513.053406,631.984497 
	C631.033081,632.086853 749.012756,632.048584 866.992310,632.188049 
	C916.819885,632.246887 966.647339,632.841431 1016.474365,632.793884 
	C1198.622559,632.620117 1380.770752,632.286194 1562.918701,631.960876 
	C1568.064941,631.951660 1573.265991,631.728577 1578.343628,630.959351 
	C1587.438599,629.581482 1589.633545,626.502258 1589.344849,617.487610 
	C1589.094238,609.660339 1589.270996,601.818176 1588.968750,593.993835 
	C1588.119751,572.025513 1587.129517,550.062622 1586.175659,528.098389 
	C1585.882446,521.343811 1582.090820,516.735657 1576.889160,512.936401 
	C1573.819458,510.694275 1570.946411,508.184845 1567.913696,505.889648 
	C1557.978882,498.370911 1548.544434,490.009033 1537.924561,483.622589 
	C1523.978149,475.235535 1508.491089,471.386383 1491.935791,473.977173 
	C1480.312866,475.796112 1470.108887,480.806732 1460.714355,487.673279 
	C1437.330933,504.764404 1411.240601,510.504181 1382.764404,506.328522 
	C1365.787598,503.839081 1350.686523,496.658142 1336.317627,487.712433 
	C1309.195068,470.826538 1280.288696,469.394104 1250.255615,477.637634 
	C1234.264893,482.026794 1219.171509,488.589172 1205.261597,497.583801 
	C1188.069824,508.700684 1170.516602,511.075714 1151.985840,501.231995 
	C1142.588745,496.240173 1133.091553,491.434357 1123.735962,486.366730 
	C1109.591064,478.704834 1094.816895,472.775818 1078.481201,475.214172 
	C1068.041016,476.772552 1057.910645,480.406799 1046.911255,483.390076 
z"/>
<path fill="#6235B4" opacity="1.000000" stroke="none" 
	d="
M1047.276367,483.250214 
	C1057.910645,480.406799 1068.041016,476.772552 1078.481201,475.214172 
	C1094.816895,472.775818 1109.591064,478.704834 1123.735962,486.366730 
	C1133.091553,491.434357 1142.588745,496.240173 1151.985840,501.231995 
	C1170.516602,511.075714 1188.069824,508.700684 1205.261597,497.583801 
	C1219.171509,488.589172 1234.264893,482.026794 1250.255615,477.637634 
	C1280.288696,469.394104 1309.195068,470.826538 1336.317627,487.712433 
	C1350.686523,496.658142 1365.787598,503.839081 1382.764404,506.328522 
	C1411.240601,510.504181 1437.330933,504.764404 1460.714355,487.673279 
	C1470.108887,480.806732 1480.312866,475.796112 1491.935791,473.977173 
	C1508.491089,471.386383 1523.978149,475.235535 1537.924561,483.622589 
	C1548.544434,490.009033 1557.978882,498.370911 1567.913696,505.889648 
	C1570.946411,508.184845 1573.819458,510.694275 1576.889160,512.936401 
	C1582.090820,516.735657 1585.882446,521.343811 1586.175659,528.098389 
	C1587.129517,550.062622 1588.119751,572.025513 1588.968750,593.993835 
	C1589.270996,601.818176 1589.094238,609.660339 1589.344849,617.487610 
	C1589.633545,626.502258 1587.438599,629.581482 1578.343628,630.959351 
	C1573.265991,631.728577 1568.064941,631.951660 1562.918701,631.960876 
	C1380.770752,632.286194 1198.622559,632.620117 1016.474365,632.793884 
	C966.647339,632.841431 916.819885,632.246887 866.992310,632.188049 
	C749.012756,632.048584 631.033081,632.086853 513.053406,631.984497 
	C464.245667,631.942139 415.438049,631.700684 366.630280,631.612061 
	C360.016479,631.600037 353.343018,632.577576 346.804260,631.961243 
	C340.148560,631.333923 338.128601,627.768860 337.771057,621.031006 
	C336.032471,588.268372 334.035858,555.519287 332.350616,522.754028 
	C332.011047,516.152100 332.436493,509.487213 332.925415,502.882141 
	C333.054382,501.140289 334.324799,498.901337 335.769745,497.929474 
	C348.571869,489.318878 362.243347,482.618134 377.640198,480.019592 
	C401.691742,475.960388 423.952240,480.679626 444.492096,493.719421 
	C453.617462,499.512695 462.509827,505.721954 473.366119,508.055359 
	C490.028595,511.636719 505.368713,507.162964 520.287903,500.361633 
	C528.002258,496.844818 535.676331,493.205902 543.173584,489.252258 
	C572.138977,473.977478 601.701660,472.213348 632.338196,484.063721 
	C644.964111,488.947449 657.296265,494.159424 668.527283,501.783813 
	C686.831177,514.209717 706.495178,512.233337 725.458435,505.017120 
	C738.856934,499.918427 751.264038,492.042694 763.771790,484.815033 
	C782.807190,473.815277 802.450378,465.402161 825.082336,467.025970 
	C837.689758,467.930481 849.524475,471.669891 861.019409,476.725067 
	C880.349854,485.226044 899.679871,493.729034 919.058289,502.119751 
	C947.891907,514.604492 976.458618,512.242432 1004.864136,500.460510 
	C1018.836243,494.665253 1032.892944,489.073792 1047.276367,483.250214 
z"/>
</svg>